<?xml version="1.0" encoding="UTF-8" standalone="no"?>
<!DOCTYPE svg PUBLIC "-//W3C//DTD SVG 1.1//EN"
 "http://www.w3.org/Graphics/SVG/1.1/DTD/svg11.dtd">
<!-- Generated by graphviz version 2.36.0 (20140111.2315)
 -->
<!-- Title: finite_state_machine Pages: 1 -->
<svg width="1934pt" height="861pt"
 viewBox="0.00 0.00 1934.00 861.00" xmlns="http://www.w3.org/2000/svg" xmlns:xlink="http://www.w3.org/1999/xlink">
<g id="graph0" class="graph" transform="scale(1 1) rotate(0) translate(4 857)">
<title>finite_state_machine</title>
<polygon fill="white" stroke="none" points="-4,4 -4,-857 1930,-857 1930,4 -4,4"/>
<!-- qi -->
<g id="node1" class="node"><title>qi</title>
<ellipse fill="black" stroke="black" cx="2" cy="-746" rx="1.8" ry="1.8"/>
</g>
<!-- StartBattle -->
<g id="node2" class="node"><title>StartBattle</title>
<ellipse fill="none" stroke="black" cx="90" cy="-746" rx="48.1917" ry="48.1917"/>
<text text-anchor="middle" x="90" y="-742.3" font-family="Times,serif" font-size="14.00">StartBattle</text>
</g>
<!-- qi&#45;&gt;StartBattle -->
<g id="edge1" class="edge"><title>qi&#45;&gt;StartBattle</title>
<path fill="none" stroke="black" d="M3.96582,-746C7.20097,-746 18.1903,-746 31.2443,-746"/>
<polygon fill="black" stroke="black" points="31.535,-749.5 41.535,-746 31.535,-742.5 31.535,-749.5"/>
</g>
<!-- Dialog -->
<g id="node3" class="node"><title>Dialog</title>
<ellipse fill="none" stroke="black" cx="233" cy="-746" rx="34.394" ry="34.394"/>
<text text-anchor="middle" x="233" y="-742.3" font-family="Times,serif" font-size="14.00">Dialog</text>
</g>
<!-- StartBattle&#45;&gt;Dialog -->
<g id="edge2" class="edge"><title>StartBattle&#45;&gt;Dialog</title>
<path fill="none" stroke="black" d="M138.343,-746C154.488,-746 172.455,-746 188.3,-746"/>
<polygon fill="black" stroke="black" points="188.366,-749.5 198.366,-746 188.366,-742.5 188.366,-749.5"/>
</g>
<!-- PlayerTurn -->
<g id="node4" class="node"><title>PlayerTurn</title>
<ellipse fill="none" stroke="black" cx="233" cy="-626" rx="50.0912" ry="50.0912"/>
<text text-anchor="middle" x="233" y="-622.3" font-family="Times,serif" font-size="14.00">PlayerTurn</text>
</g>
<!-- Dialog&#45;&gt;PlayerTurn -->
<g id="edge3" class="edge"><title>Dialog&#45;&gt;PlayerTurn</title>
<path fill="none" stroke="black" d="M233,-711.624C233,-703.219 233,-694.814 233,-686.409"/>
<polygon fill="black" stroke="black" points="236.5,-686.156 233,-676.156 229.5,-686.156 236.5,-686.156"/>
</g>
<!-- SelectOption -->
<g id="node5" class="node"><title>SelectOption</title>
<ellipse fill="none" stroke="black" cx="233" cy="-215" rx="56.59" ry="56.59"/>
<text text-anchor="middle" x="233" y="-211.3" font-family="Times,serif" font-size="14.00">SelectOption</text>
</g>
<!-- PlayerTurn&#45;&gt;SelectOption -->
<g id="edge4" class="edge"><title>PlayerTurn&#45;&gt;SelectOption</title>
<path fill="none" stroke="black" d="M233,-575.815C233,-477.775 233,-379.734 233,-281.694"/>
<polygon fill="black" stroke="black" points="236.5,-281.593 233,-271.593 229.5,-281.593 236.5,-281.593"/>
</g>
<!-- Atack -->
<g id="node6" class="node"><title>Atack</title>
<ellipse fill="none" stroke="black" cx="360" cy="-215" rx="31.6951" ry="31.6951"/>
<text text-anchor="middle" x="360" y="-211.3" font-family="Times,serif" font-size="14.00">Atack</text>
</g>
<!-- SelectOption&#45;&gt;Atack -->
<g id="edge5" class="edge"><title>SelectOption&#45;&gt;Atack</title>
<path fill="none" stroke="black" d="M289.555,-215C299.022,-215 308.704,-215 317.718,-215"/>
<polygon fill="black" stroke="black" points="317.939,-218.5 327.939,-215 317.939,-211.5 317.939,-218.5"/>
</g>
<!-- Poke -->
<g id="node7" class="node"><title>Poke</title>
<ellipse fill="none" stroke="black" cx="360" cy="-448" rx="28.6953" ry="28.6953"/>
<text text-anchor="middle" x="360" y="-444.3" font-family="Times,serif" font-size="14.00">Poke</text>
</g>
<!-- SelectOption&#45;&gt;Poke -->
<g id="edge6" class="edge"><title>SelectOption&#45;&gt;Poke</title>
<path fill="none" stroke="black" d="M260.509,-264.413C284.726,-309.553 319.877,-375.076 340.982,-414.415"/>
<polygon fill="black" stroke="black" points="337.963,-416.19 345.774,-423.347 344.131,-412.881 337.963,-416.19"/>
</g>
<!-- Bag -->
<g id="node8" class="node"><title>Bag</title>
<ellipse fill="none" stroke="black" cx="360" cy="-313" rx="24.8972" ry="24.8972"/>
<text text-anchor="middle" x="360" y="-309.3" font-family="Times,serif" font-size="14.00">Bag</text>
</g>
<!-- SelectOption&#45;&gt;Bag -->
<g id="edge7" class="edge"><title>SelectOption&#45;&gt;Bag</title>
<path fill="none" stroke="black" d="M278.07,-249.551C295.981,-263.593 316.109,-279.374 331.812,-291.684"/>
<polygon fill="black" stroke="black" points="330.008,-294.718 340.037,-298.133 334.327,-289.209 330.008,-294.718"/>
</g>
<!-- Flee -->
<g id="node9" class="node"><title>Flee</title>
<ellipse fill="none" stroke="black" cx="360" cy="-139" rx="25.9954" ry="25.9954"/>
<text text-anchor="middle" x="360" y="-135.3" font-family="Times,serif" font-size="14.00">Flee</text>
</g>
<!-- SelectOption&#45;&gt;Flee -->
<g id="edge8" class="edge"><title>SelectOption&#45;&gt;Flee</title>
<path fill="none" stroke="black" d="M281.614,-186.051C297.348,-176.485 314.418,-166.106 328.513,-157.536"/>
<polygon fill="black" stroke="black" points="330.575,-160.379 337.301,-152.193 326.938,-154.397 330.575,-160.379"/>
</g>
<!-- SelectAtack -->
<g id="node12" class="node"><title>SelectAtack</title>
<ellipse fill="none" stroke="black" cx="520" cy="-199" rx="53.0913" ry="53.0913"/>
<text text-anchor="middle" x="520" y="-195.3" font-family="Times,serif" font-size="14.00">SelectAtack</text>
</g>
<!-- Atack&#45;&gt;SelectAtack -->
<g id="edge11" class="edge"><title>Atack&#45;&gt;SelectAtack</title>
<path fill="none" stroke="black" d="M391.839,-211.877C410.296,-210.008 434.425,-207.565 456.699,-205.309"/>
<polygon fill="black" stroke="black" points="457.178,-208.778 466.775,-204.289 456.473,-201.814 457.178,-208.778"/>
</g>
<!-- OpenPokeSelectScene -->
<g id="node14" class="node"><title>OpenPokeSelectScene</title>
<ellipse fill="none" stroke="black" cx="520" cy="-508" rx="89.8845" ry="89.8845"/>
<text text-anchor="middle" x="520" y="-504.3" font-family="Times,serif" font-size="14.00">OpenPokeSelectScene</text>
</g>
<!-- Poke&#45;&gt;OpenPokeSelectScene -->
<g id="edge13" class="edge"><title>Poke&#45;&gt;OpenPokeSelectScene</title>
<path fill="none" stroke="black" d="M387.09,-457.908C398.235,-462.14 411.979,-467.359 426.345,-472.815"/>
<polygon fill="black" stroke="black" points="425.263,-476.147 435.854,-476.425 427.748,-469.603 425.263,-476.147"/>
</g>
<!-- OpenBagScene -->
<g id="node13" class="node"><title>OpenBagScene</title>
<ellipse fill="none" stroke="black" cx="520" cy="-335" rx="64.9885" ry="64.9885"/>
<text text-anchor="middle" x="520" y="-331.3" font-family="Times,serif" font-size="14.00">OpenBagScene</text>
</g>
<!-- Bag&#45;&gt;OpenBagScene -->
<g id="edge12" class="edge"><title>Bag&#45;&gt;OpenBagScene</title>
<path fill="none" stroke="black" d="M384.654,-316.294C400.929,-318.56 423.501,-321.703 445.501,-324.766"/>
<polygon fill="black" stroke="black" points="445.157,-328.252 455.544,-326.164 446.123,-321.319 445.157,-328.252"/>
</g>
<!-- MsgFlee -->
<g id="node10" class="node"><title>MsgFlee</title>
<ellipse fill="none" stroke="black" cx="520" cy="-85" rx="42.4939" ry="42.4939"/>
<text text-anchor="middle" x="520" y="-81.3" font-family="Times,serif" font-size="14.00">MsgFlee</text>
</g>
<!-- Flee&#45;&gt;MsgFlee -->
<g id="edge9" class="edge"><title>Flee&#45;&gt;MsgFlee</title>
<path fill="none" stroke="black" d="M384.997,-130.799C407.469,-123.118 441.728,-111.409 469.981,-101.753"/>
<polygon fill="black" stroke="black" points="471.364,-104.979 479.695,-98.4334 469.1,-98.3556 471.364,-104.979"/>
</g>
<!-- MsgFlee&#45;&gt;SelectOption -->
<g id="edge10" class="edge"><title>MsgFlee&#45;&gt;SelectOption</title>
<path fill="none" stroke="black" d="M477.718,-80.5045C437.227,-77.9996 374.907,-79.362 328,-104 304.119,-116.543 283.801,-137.945 268.231,-158.629"/>
<polygon fill="black" stroke="black" points="265.335,-156.66 262.284,-166.806 270.996,-160.777 265.335,-156.66"/>
</g>
<!-- Start -->
<g id="node11" class="node"><title>Start</title>
<ellipse fill="none" stroke="black" cx="233" cy="-826" rx="27.0966" ry="27.0966"/>
<text text-anchor="middle" x="233" y="-822.3" font-family="Times,serif" font-size="14.00">Start</text>
</g>
<!-- Atack1 -->
<g id="node15" class="node"><title>Atack1</title>
<ellipse fill="none" stroke="black" cx="691" cy="-199" rx="36.2938" ry="36.2938"/>
<text text-anchor="middle" x="691" y="-195.3" font-family="Times,serif" font-size="14.00">Atack1</text>
</g>
<!-- SelectAtack&#45;&gt;Atack1 -->
<g id="edge14" class="edge"><title>SelectAtack&#45;&gt;Atack1</title>
<path fill="none" stroke="black" d="M573.546,-199C596.298,-199 622.675,-199 644.567,-199"/>
<polygon fill="black" stroke="black" points="644.598,-202.5 654.598,-199 644.598,-195.5 644.598,-202.5"/>
</g>
<!-- Atack2 -->
<g id="node16" class="node"><title>Atack2</title>
<ellipse fill="none" stroke="black" cx="691" cy="-108" rx="36.2938" ry="36.2938"/>
<text text-anchor="middle" x="691" y="-104.3" font-family="Times,serif" font-size="14.00">Atack2</text>
</g>
<!-- SelectAtack&#45;&gt;Atack2 -->
<g id="edge15" class="edge"><title>SelectAtack&#45;&gt;Atack2</title>
<path fill="none" stroke="black" d="M567.18,-174.134C592.918,-160.275 624.673,-143.176 649.446,-129.837"/>
<polygon fill="black" stroke="black" points="651.426,-132.746 658.571,-124.923 648.107,-126.582 651.426,-132.746"/>
</g>
<!-- Atack3 -->
<g id="node17" class="node"><title>Atack3</title>
<ellipse fill="none" stroke="black" cx="691" cy="-381" rx="36.2938" ry="36.2938"/>
<text text-anchor="middle" x="691" y="-377.3" font-family="Times,serif" font-size="14.00">Atack3</text>
</g>
<!-- SelectAtack&#45;&gt;Atack3 -->
<g id="edge16" class="edge"><title>SelectAtack&#45;&gt;Atack3</title>
<path fill="none" stroke="black" d="M566.978,-224.821C581.965,-234.764 597.854,-247.106 610,-261 634.333,-288.835 626.905,-304.637 648,-335 651.008,-339.33 654.393,-343.678 657.903,-347.882"/>
<polygon fill="black" stroke="black" points="655.537,-350.495 664.74,-355.744 660.819,-345.901 655.537,-350.495"/>
</g>
<!-- Atack4 -->
<g id="node18" class="node"><title>Atack4</title>
<ellipse fill="none" stroke="black" cx="691" cy="-290" rx="36.2938" ry="36.2938"/>
<text text-anchor="middle" x="691" y="-286.3" font-family="Times,serif" font-size="14.00">Atack4</text>
</g>
<!-- SelectAtack&#45;&gt;Atack4 -->
<g id="edge17" class="edge"><title>SelectAtack&#45;&gt;Atack4</title>
<path fill="none" stroke="black" d="M567.18,-223.866C592.918,-237.725 624.673,-254.824 649.446,-268.163"/>
<polygon fill="black" stroke="black" points="648.107,-271.418 658.571,-273.077 651.426,-265.254 648.107,-271.418"/>
</g>
<!-- AtackResult -->
<g id="node19" class="node"><title>AtackResult</title>
<ellipse fill="none" stroke="black" cx="873" cy="-290" rx="53.8905" ry="53.8905"/>
<text text-anchor="middle" x="873" y="-286.3" font-family="Times,serif" font-size="14.00">AtackResult</text>
</g>
<!-- Atack1&#45;&gt;AtackResult -->
<g id="edge18" class="edge"><title>Atack1&#45;&gt;AtackResult</title>
<path fill="none" stroke="black" d="M723.766,-215.059C749.102,-227.868 785.227,-246.132 815.472,-261.422"/>
<polygon fill="black" stroke="black" points="814.148,-264.674 824.651,-266.062 817.306,-258.427 814.148,-264.674"/>
</g>
<!-- Atack2&#45;&gt;AtackResult -->
<g id="edge19" class="edge"><title>Atack2&#45;&gt;AtackResult</title>
<path fill="none" stroke="black" d="M716.619,-133.733C722.49,-140.201 728.612,-147.231 734,-154 752.504,-177.246 751.807,-187.206 772,-209 786.485,-224.633 804.06,-239.862 820.41,-252.818"/>
<polygon fill="black" stroke="black" points="818.282,-255.597 828.32,-258.987 822.587,-250.077 818.282,-255.597"/>
</g>
<!-- Atack3&#45;&gt;AtackResult -->
<g id="edge20" class="edge"><title>Atack3&#45;&gt;AtackResult</title>
<path fill="none" stroke="black" d="M723.766,-364.941C749.102,-352.132 785.227,-333.868 815.472,-318.578"/>
<polygon fill="black" stroke="black" points="817.306,-321.573 824.651,-313.938 814.148,-315.326 817.306,-321.573"/>
</g>
<!-- Atack4&#45;&gt;AtackResult -->
<g id="edge21" class="edge"><title>Atack4&#45;&gt;AtackResult</title>
<path fill="none" stroke="black" d="M727.562,-290C750.638,-290 781.362,-290 808.54,-290"/>
<polygon fill="black" stroke="black" points="808.759,-293.5 818.759,-290 808.759,-286.5 808.759,-293.5"/>
</g>
<!-- IsOponentPokemonAlive -->
<g id="node20" class="node"><title>IsOponentPokemonAlive</title>
<ellipse fill="none" stroke="black" cx="873" cy="-100" rx="100.983" ry="100.983"/>
<text text-anchor="middle" x="873" y="-96.3" font-family="Times,serif" font-size="14.00">IsOponentPokemonAlive</text>
</g>
<!-- AtackResult&#45;&gt;IsOponentPokemonAlive -->
<g id="edge22" class="edge"><title>AtackResult&#45;&gt;IsOponentPokemonAlive</title>
<path fill="none" stroke="black" d="M873,-236.2C873,-227.663 873,-219.126 873,-210.588"/>
<polygon fill="black" stroke="black" points="876.5,-210.566 873,-200.566 869.5,-210.566 876.5,-210.566"/>
</g>
<!-- OponentTurn -->
<g id="node21" class="node"><title>OponentTurn</title>
<ellipse fill="none" stroke="black" cx="1154" cy="-438" rx="57.6901" ry="57.6901"/>
<text text-anchor="middle" x="1154" y="-434.3" font-family="Times,serif" font-size="14.00">OponentTurn</text>
</g>
<!-- IsOponentPokemonAlive&#45;&gt;OponentTurn -->
<g id="edge23" class="edge"><title>IsOponentPokemonAlive&#45;&gt;OponentTurn</title>
<path fill="none" stroke="black" d="M937.659,-177.12C990.39,-241.003 1063.89,-330.051 1109.94,-385.836"/>
<polygon fill="black" stroke="black" points="1107.46,-388.334 1116.53,-393.818 1112.86,-383.878 1107.46,-388.334"/>
<text text-anchor="middle" x="1035" y="-341.8" font-family="Times,serif" font-size="14.00">Pokemon Alive</text>
</g>
<!-- OponentDefeated -->
<g id="node22" class="node"><title>OponentDefeated</title>
<ellipse fill="none" stroke="black" cx="1715" cy="-100" rx="72.5877" ry="72.5877"/>
<text text-anchor="middle" x="1715" y="-96.3" font-family="Times,serif" font-size="14.00">OponentDefeated</text>
</g>
<!-- IsOponentPokemonAlive&#45;&gt;OponentDefeated -->
<g id="edge24" class="edge"><title>IsOponentPokemonAlive&#45;&gt;OponentDefeated</title>
<path fill="none" stroke="black" d="M974.073,-100C1141.84,-100 1476.65,-100 1631.7,-100"/>
<polygon fill="black" stroke="black" points="1632.09,-103.5 1642.09,-100 1632.09,-96.5001 1632.09,-103.5"/>
<text text-anchor="middle" x="1273" y="-103.8" font-family="Times,serif" font-size="14.00">Pokemon Dead</text>
</g>
<!-- OponentSelectAtack -->
<g id="node24" class="node"><title>OponentSelectAtack</title>
<ellipse fill="none" stroke="black" cx="1427" cy="-672" rx="83.3857" ry="83.3857"/>
<text text-anchor="middle" x="1427" y="-668.3" font-family="Times,serif" font-size="14.00">OponentSelectAtack</text>
</g>
<!-- OponentTurn&#45;&gt;OponentSelectAtack -->
<g id="edge25" class="edge"><title>OponentTurn&#45;&gt;OponentSelectAtack</title>
<path fill="none" stroke="black" d="M1198.24,-475.337C1240.58,-511.897 1305.81,-568.221 1355.63,-611.238"/>
<polygon fill="black" stroke="black" points="1353.63,-614.136 1363.49,-618.022 1358.21,-608.838 1353.63,-614.136"/>
</g>
<!-- BattleOver -->
<g id="node27" class="node"><title>BattleOver</title>
<ellipse fill="none" stroke="black" cx="1876" cy="-194" rx="49.2915" ry="49.2915"/>
<text text-anchor="middle" x="1876" y="-190.3" font-family="Times,serif" font-size="14.00">BattleOver</text>
</g>
<!-- OponentDefeated&#45;&gt;BattleOver -->
<g id="edge30" class="edge"><title>OponentDefeated&#45;&gt;BattleOver</title>
<path fill="none" stroke="black" d="M1777.93,-136.612C1793.24,-145.662 1809.46,-155.253 1824.17,-163.951"/>
<polygon fill="black" stroke="black" points="1822.72,-167.161 1833.11,-169.237 1826.29,-161.135 1822.72,-167.161"/>
</g>
<!-- PlayerDefeated -->
<g id="node23" class="node"><title>PlayerDefeated</title>
<ellipse fill="none" stroke="black" cx="1715" cy="-256" rx="64.9885" ry="64.9885"/>
<text text-anchor="middle" x="1715" y="-252.3" font-family="Times,serif" font-size="14.00">PlayerDefeated</text>
</g>
<!-- PlayerDefeated&#45;&gt;BattleOver -->
<g id="edge31" class="edge"><title>PlayerDefeated&#45;&gt;BattleOver</title>
<path fill="none" stroke="black" d="M1775.66,-232.737C1790.12,-227.098 1805.52,-221.093 1819.77,-215.537"/>
<polygon fill="black" stroke="black" points="1821.38,-218.666 1829.42,-211.773 1818.83,-212.145 1821.38,-218.666"/>
</g>
<!-- OponentResultAtack -->
<g id="node25" class="node"><title>OponentResultAtack</title>
<ellipse fill="none" stroke="black" cx="1427" cy="-469" rx="84.485" ry="84.485"/>
<text text-anchor="middle" x="1427" y="-465.3" font-family="Times,serif" font-size="14.00">OponentResultAtack</text>
</g>
<!-- OponentSelectAtack&#45;&gt;OponentResultAtack -->
<g id="edge26" class="edge"><title>OponentSelectAtack&#45;&gt;OponentResultAtack</title>
<path fill="none" stroke="black" d="M1427,-588.645C1427,-580.305 1427,-571.965 1427,-563.624"/>
<polygon fill="black" stroke="black" points="1430.5,-563.451 1427,-553.451 1423.5,-563.451 1430.5,-563.451"/>
</g>
<!-- IsPlayerPokemonAlive -->
<g id="node26" class="node"><title>IsPlayerPokemonAlive</title>
<ellipse fill="none" stroke="black" cx="1427" cy="-256" rx="92.8835" ry="92.8835"/>
<text text-anchor="middle" x="1427" y="-252.3" font-family="Times,serif" font-size="14.00">IsPlayerPokemonAlive</text>
</g>
<!-- OponentResultAtack&#45;&gt;IsPlayerPokemonAlive -->
<g id="edge27" class="edge"><title>OponentResultAtack&#45;&gt;IsPlayerPokemonAlive</title>
<path fill="none" stroke="black" d="M1427,-384.464C1427,-375.913 1427,-367.362 1427,-358.81"/>
<polygon fill="black" stroke="black" points="1430.5,-358.771 1427,-348.771 1423.5,-358.772 1430.5,-358.771"/>
</g>
<!-- IsPlayerPokemonAlive&#45;&gt;PlayerTurn -->
<g id="edge28" class="edge"><title>IsPlayerPokemonAlive&#45;&gt;PlayerTurn</title>
<path fill="none" stroke="black" d="M1369.42,-329.008C1357.62,-344.454 1345.33,-360.709 1334,-376 1252.64,-485.796 1291.66,-626 1155,-626 359,-626 359,-626 359,-626 337.65,-626 314.25,-626 293.527,-626"/>
<polygon fill="black" stroke="black" points="293.276,-622.5 283.276,-626 293.276,-629.5 293.276,-622.5"/>
<text text-anchor="middle" x="691" y="-629.8" font-family="Times,serif" font-size="14.00">Pokemon Alive</text>
</g>
<!-- IsPlayerPokemonAlive&#45;&gt;PlayerDefeated -->
<g id="edge29" class="edge"><title>IsPlayerPokemonAlive&#45;&gt;PlayerDefeated</title>
<path fill="none" stroke="black" d="M1520.07,-256C1558.73,-256 1603.1,-256 1639.63,-256"/>
<polygon fill="black" stroke="black" points="1639.72,-259.5 1649.72,-256 1639.72,-252.5 1639.72,-259.5"/>
<text text-anchor="middle" x="1581" y="-259.8" font-family="Times,serif" font-size="14.00">Pokemon Dead</text>
</g>
</g>
</svg>
