<?xml version="1.0" encoding="UTF-8" standalone="no"?>
<!DOCTYPE svg PUBLIC "-//W3C//DTD SVG 1.1//EN"
 "http://www.w3.org/Graphics/SVG/1.1/DTD/svg11.dtd">
<!-- Generated by graphviz version 2.36.0 (20140111.2315)
 -->
<!-- Title: finite_state_machine Pages: 1 -->
<svg width="1790pt" height="917pt"
 viewBox="0.00 0.00 1790.00 917.00" xmlns="http://www.w3.org/2000/svg" xmlns:xlink="http://www.w3.org/1999/xlink">
<g id="graph0" class="graph" transform="scale(1 1) rotate(0) translate(4 913)">
<title>finite_state_machine</title>
<polygon fill="white" stroke="none" points="-4,4 -4,-913 1786,-913 1786,4 -4,4"/>
<!-- qi -->
<g id="node1" class="node"><title>qi</title>
<ellipse fill="black" stroke="black" cx="57" cy="-48" rx="1.8" ry="1.8"/>
</g>
<!-- StartBattle -->
<g id="node2" class="node"><title>StartBattle</title>
<ellipse fill="none" stroke="black" cx="200" cy="-48" rx="48.1917" ry="48.1917"/>
<text text-anchor="middle" x="200" y="-44.3" font-family="Times,serif" font-size="14.00">StartBattle</text>
</g>
<!-- qi&#45;&gt;StartBattle -->
<g id="edge1" class="edge"><title>qi&#45;&gt;StartBattle</title>
<path fill="none" stroke="black" d="M58.9004,-48C65.3685,-48 105.514,-48 141.182,-48"/>
<polygon fill="black" stroke="black" points="141.577,-51.5001 151.577,-48 141.577,-44.5001 141.577,-51.5001"/>
</g>
<!-- Start -->
<g id="node3" class="node"><title>Start</title>
<ellipse fill="none" stroke="black" cx="57" cy="-882" rx="27.0966" ry="27.0966"/>
<text text-anchor="middle" x="57" y="-878.3" font-family="Times,serif" font-size="14.00">Start</text>
</g>
<!-- Dialog -->
<g id="node4" class="node"><title>Dialog</title>
<ellipse fill="none" stroke="black" cx="57" cy="-785" rx="34.394" ry="34.394"/>
<text text-anchor="middle" x="57" y="-781.3" font-family="Times,serif" font-size="14.00">Dialog</text>
</g>
<!-- Start&#45;&gt;Dialog -->
<g id="edge2" class="edge"><title>Start&#45;&gt;Dialog</title>
<path fill="none" stroke="black" d="M57,-854.648C57,-846.314 57,-837.98 57,-829.646"/>
<polygon fill="black" stroke="black" points="60.5001,-829.48 57,-819.48 53.5001,-829.481 60.5001,-829.48"/>
</g>
<!-- PlayerTurn -->
<g id="node5" class="node"><title>PlayerTurn</title>
<ellipse fill="none" stroke="black" cx="57" cy="-665" rx="50.0912" ry="50.0912"/>
<text text-anchor="middle" x="57" y="-661.3" font-family="Times,serif" font-size="14.00">PlayerTurn</text>
</g>
<!-- Dialog&#45;&gt;PlayerTurn -->
<g id="edge3" class="edge"><title>Dialog&#45;&gt;PlayerTurn</title>
<path fill="none" stroke="black" d="M57,-750.624C57,-742.219 57,-733.814 57,-725.409"/>
<polygon fill="black" stroke="black" points="60.5001,-725.156 57,-715.156 53.5001,-725.156 60.5001,-725.156"/>
</g>
<!-- SelectOption -->
<g id="node6" class="node"><title>SelectOption</title>
<ellipse fill="none" stroke="black" cx="57" cy="-254" rx="56.59" ry="56.59"/>
<text text-anchor="middle" x="57" y="-250.3" font-family="Times,serif" font-size="14.00">SelectOption</text>
</g>
<!-- PlayerTurn&#45;&gt;SelectOption -->
<g id="edge4" class="edge"><title>PlayerTurn&#45;&gt;SelectOption</title>
<path fill="none" stroke="black" d="M57,-614.815C57,-516.775 57,-418.734 57,-320.694"/>
<polygon fill="black" stroke="black" points="60.5001,-320.593 57,-310.593 53.5001,-320.593 60.5001,-320.593"/>
</g>
<!-- Atack -->
<g id="node7" class="node"><title>Atack</title>
<ellipse fill="none" stroke="black" cx="200" cy="-254" rx="31.6951" ry="31.6951"/>
<text text-anchor="middle" x="200" y="-250.3" font-family="Times,serif" font-size="14.00">Atack</text>
</g>
<!-- SelectOption&#45;&gt;Atack -->
<g id="edge5" class="edge"><title>SelectOption&#45;&gt;Atack</title>
<path fill="none" stroke="black" d="M113.727,-254C128.449,-254 144.07,-254 157.865,-254"/>
<polygon fill="black" stroke="black" points="158.013,-257.5 168.013,-254 158.013,-250.5 158.013,-257.5"/>
</g>
<!-- Poke -->
<g id="node8" class="node"><title>Poke</title>
<ellipse fill="none" stroke="black" cx="200" cy="-487" rx="28.6953" ry="28.6953"/>
<text text-anchor="middle" x="200" y="-483.3" font-family="Times,serif" font-size="14.00">Poke</text>
</g>
<!-- SelectOption&#45;&gt;Poke -->
<g id="edge6" class="edge"><title>SelectOption&#45;&gt;Poke</title>
<path fill="none" stroke="black" d="M87.0443,-301.995C114.567,-347.477 155.165,-414.563 179.162,-454.218"/>
<polygon fill="black" stroke="black" points="176.282,-456.22 184.454,-462.963 182.271,-452.595 176.282,-456.22"/>
</g>
<!-- Bag -->
<g id="node9" class="node"><title>Bag</title>
<ellipse fill="none" stroke="black" cx="200" cy="-352" rx="24.8972" ry="24.8972"/>
<text text-anchor="middle" x="200" y="-348.3" font-family="Times,serif" font-size="14.00">Bag</text>
</g>
<!-- SelectOption&#45;&gt;Bag -->
<g id="edge7" class="edge"><title>SelectOption&#45;&gt;Bag</title>
<path fill="none" stroke="black" d="M103.779,-285.818C125.954,-301.23 151.865,-319.239 171.055,-332.577"/>
<polygon fill="black" stroke="black" points="169.152,-335.517 179.361,-338.35 173.147,-329.769 169.152,-335.517"/>
</g>
<!-- Flee -->
<g id="node10" class="node"><title>Flee</title>
<ellipse fill="none" stroke="black" cx="200" cy="-178" rx="25.9954" ry="25.9954"/>
<text text-anchor="middle" x="200" y="-174.3" font-family="Times,serif" font-size="14.00">Flee</text>
</g>
<!-- SelectOption&#45;&gt;Flee -->
<g id="edge8" class="edge"><title>SelectOption&#45;&gt;Flee</title>
<path fill="none" stroke="black" d="M107.315,-227.419C127.468,-216.556 150.166,-204.322 167.937,-194.743"/>
<polygon fill="black" stroke="black" points="169.599,-197.824 176.741,-189.998 166.277,-191.662 169.599,-197.824"/>
</g>
<!-- SelectAtack -->
<g id="node12" class="node"><title>SelectAtack</title>
<ellipse fill="none" stroke="black" cx="376" cy="-238" rx="53.0913" ry="53.0913"/>
<text text-anchor="middle" x="376" y="-234.3" font-family="Times,serif" font-size="14.00">SelectAtack</text>
</g>
<!-- Atack&#45;&gt;SelectAtack -->
<g id="edge11" class="edge"><title>Atack&#45;&gt;SelectAtack</title>
<path fill="none" stroke="black" d="M232.108,-251.14C254.384,-249.091 285.138,-246.263 312.41,-243.755"/>
<polygon fill="black" stroke="black" points="313.03,-247.213 322.667,-242.812 312.389,-240.243 313.03,-247.213"/>
</g>
<!-- OpenPokeSelectScene -->
<g id="node14" class="node"><title>OpenPokeSelectScene</title>
<ellipse fill="none" stroke="black" cx="376" cy="-547" rx="89.8845" ry="89.8845"/>
<text text-anchor="middle" x="376" y="-543.3" font-family="Times,serif" font-size="14.00">OpenPokeSelectScene</text>
</g>
<!-- Poke&#45;&gt;OpenPokeSelectScene -->
<g id="edge13" class="edge"><title>Poke&#45;&gt;OpenPokeSelectScene</title>
<path fill="none" stroke="black" d="M227.427,-496.113C242.133,-501.184 261.423,-507.836 281.185,-514.65"/>
<polygon fill="black" stroke="black" points="280.312,-518.051 290.907,-518.002 282.594,-511.434 280.312,-518.051"/>
</g>
<!-- OpenBagScene -->
<g id="node13" class="node"><title>OpenBagScene</title>
<ellipse fill="none" stroke="black" cx="376" cy="-374" rx="64.9885" ry="64.9885"/>
<text text-anchor="middle" x="376" y="-370.3" font-family="Times,serif" font-size="14.00">OpenBagScene</text>
</g>
<!-- Bag&#45;&gt;OpenBagScene -->
<g id="edge12" class="edge"><title>Bag&#45;&gt;OpenBagScene</title>
<path fill="none" stroke="black" d="M224.829,-355.013C244.641,-357.518 273.935,-361.222 301.403,-364.695"/>
<polygon fill="black" stroke="black" points="301.059,-368.179 311.419,-365.961 301.937,-361.234 301.059,-368.179"/>
</g>
<!-- MsgFlee -->
<g id="node11" class="node"><title>MsgFlee</title>
<ellipse fill="none" stroke="black" cx="376" cy="-124" rx="42.4939" ry="42.4939"/>
<text text-anchor="middle" x="376" y="-120.3" font-family="Times,serif" font-size="14.00">MsgFlee</text>
</g>
<!-- Flee&#45;&gt;MsgFlee -->
<g id="edge9" class="edge"><title>Flee&#45;&gt;MsgFlee</title>
<path fill="none" stroke="black" d="M225.194,-170.492C251.005,-162.481 292.607,-149.57 325.429,-139.384"/>
<polygon fill="black" stroke="black" points="326.793,-142.626 335.306,-136.319 324.718,-135.94 326.793,-142.626"/>
</g>
<!-- MsgFlee&#45;&gt;SelectOption -->
<g id="edge10" class="edge"><title>MsgFlee&#45;&gt;SelectOption</title>
<path fill="none" stroke="black" d="M333.789,-118.499C286.989,-114.218 209.659,-113.234 152,-143 128.031,-155.374 107.698,-176.748 92.1407,-197.457"/>
<polygon fill="black" stroke="black" points="89.2391,-195.496 86.2003,-205.646 94.9053,-199.606 89.2391,-195.496"/>
</g>
<!-- Atack1 -->
<g id="node15" class="node"><title>Atack1</title>
<ellipse fill="none" stroke="black" cx="547" cy="-238" rx="36.2938" ry="36.2938"/>
<text text-anchor="middle" x="547" y="-234.3" font-family="Times,serif" font-size="14.00">Atack1</text>
</g>
<!-- SelectAtack&#45;&gt;Atack1 -->
<g id="edge14" class="edge"><title>SelectAtack&#45;&gt;Atack1</title>
<path fill="none" stroke="black" d="M429.546,-238C452.298,-238 478.675,-238 500.567,-238"/>
<polygon fill="black" stroke="black" points="500.598,-241.5 510.598,-238 500.598,-234.5 500.598,-241.5"/>
</g>
<!-- Atack2 -->
<g id="node16" class="node"><title>Atack2</title>
<ellipse fill="none" stroke="black" cx="547" cy="-147" rx="36.2938" ry="36.2938"/>
<text text-anchor="middle" x="547" y="-143.3" font-family="Times,serif" font-size="14.00">Atack2</text>
</g>
<!-- SelectAtack&#45;&gt;Atack2 -->
<g id="edge15" class="edge"><title>SelectAtack&#45;&gt;Atack2</title>
<path fill="none" stroke="black" d="M423.18,-213.134C448.918,-199.275 480.673,-182.176 505.446,-168.837"/>
<polygon fill="black" stroke="black" points="507.426,-171.746 514.571,-163.923 504.107,-165.582 507.426,-171.746"/>
</g>
<!-- Atack3 -->
<g id="node17" class="node"><title>Atack3</title>
<ellipse fill="none" stroke="black" cx="547" cy="-420" rx="36.2938" ry="36.2938"/>
<text text-anchor="middle" x="547" y="-416.3" font-family="Times,serif" font-size="14.00">Atack3</text>
</g>
<!-- SelectAtack&#45;&gt;Atack3 -->
<g id="edge16" class="edge"><title>SelectAtack&#45;&gt;Atack3</title>
<path fill="none" stroke="black" d="M422.978,-263.821C437.965,-273.764 453.854,-286.106 466,-300 490.333,-327.835 482.905,-343.637 504,-374 507.008,-378.33 510.393,-382.678 513.903,-386.882"/>
<polygon fill="black" stroke="black" points="511.537,-389.495 520.74,-394.744 516.819,-384.901 511.537,-389.495"/>
</g>
<!-- Atack4 -->
<g id="node18" class="node"><title>Atack4</title>
<ellipse fill="none" stroke="black" cx="547" cy="-329" rx="36.2938" ry="36.2938"/>
<text text-anchor="middle" x="547" y="-325.3" font-family="Times,serif" font-size="14.00">Atack4</text>
</g>
<!-- SelectAtack&#45;&gt;Atack4 -->
<g id="edge17" class="edge"><title>SelectAtack&#45;&gt;Atack4</title>
<path fill="none" stroke="black" d="M423.18,-262.866C448.918,-276.725 480.673,-293.824 505.446,-307.163"/>
<polygon fill="black" stroke="black" points="504.107,-310.418 514.571,-312.077 507.426,-304.254 504.107,-310.418"/>
</g>
<!-- AtackResult -->
<g id="node19" class="node"><title>AtackResult</title>
<ellipse fill="none" stroke="black" cx="729" cy="-329" rx="53.8905" ry="53.8905"/>
<text text-anchor="middle" x="729" y="-325.3" font-family="Times,serif" font-size="14.00">AtackResult</text>
</g>
<!-- Atack1&#45;&gt;AtackResult -->
<g id="edge18" class="edge"><title>Atack1&#45;&gt;AtackResult</title>
<path fill="none" stroke="black" d="M579.766,-254.059C605.102,-266.868 641.227,-285.132 671.472,-300.422"/>
<polygon fill="black" stroke="black" points="670.148,-303.674 680.651,-305.062 673.306,-297.427 670.148,-303.674"/>
</g>
<!-- Atack2&#45;&gt;AtackResult -->
<g id="edge19" class="edge"><title>Atack2&#45;&gt;AtackResult</title>
<path fill="none" stroke="black" d="M572.619,-172.733C578.49,-179.201 584.612,-186.231 590,-193 608.504,-216.246 607.807,-226.206 628,-248 642.485,-263.633 660.06,-278.862 676.41,-291.818"/>
<polygon fill="black" stroke="black" points="674.282,-294.597 684.32,-297.987 678.587,-289.077 674.282,-294.597"/>
</g>
<!-- Atack3&#45;&gt;AtackResult -->
<g id="edge20" class="edge"><title>Atack3&#45;&gt;AtackResult</title>
<path fill="none" stroke="black" d="M579.766,-403.941C605.102,-391.132 641.227,-372.868 671.472,-357.578"/>
<polygon fill="black" stroke="black" points="673.306,-360.573 680.651,-352.938 670.148,-354.326 673.306,-360.573"/>
</g>
<!-- Atack4&#45;&gt;AtackResult -->
<g id="edge21" class="edge"><title>Atack4&#45;&gt;AtackResult</title>
<path fill="none" stroke="black" d="M583.562,-329C606.638,-329 637.362,-329 664.54,-329"/>
<polygon fill="black" stroke="black" points="664.759,-332.5 674.759,-329 664.759,-325.5 664.759,-332.5"/>
</g>
<!-- IsOponentPokemonAlive -->
<g id="node20" class="node"><title>IsOponentPokemonAlive</title>
<ellipse fill="none" stroke="black" cx="729" cy="-139" rx="100.983" ry="100.983"/>
<text text-anchor="middle" x="729" y="-135.3" font-family="Times,serif" font-size="14.00">IsOponentPokemonAlive</text>
</g>
<!-- AtackResult&#45;&gt;IsOponentPokemonAlive -->
<g id="edge22" class="edge"><title>AtackResult&#45;&gt;IsOponentPokemonAlive</title>
<path fill="none" stroke="black" d="M729,-275.2C729,-266.663 729,-258.126 729,-249.588"/>
<polygon fill="black" stroke="black" points="732.5,-249.566 729,-239.566 725.5,-249.566 732.5,-249.566"/>
</g>
<!-- OponentTurn -->
<g id="node21" class="node"><title>OponentTurn</title>
<ellipse fill="none" stroke="black" cx="1010" cy="-477" rx="57.6901" ry="57.6901"/>
<text text-anchor="middle" x="1010" y="-473.3" font-family="Times,serif" font-size="14.00">OponentTurn</text>
</g>
<!-- IsOponentPokemonAlive&#45;&gt;OponentTurn -->
<g id="edge23" class="edge"><title>IsOponentPokemonAlive&#45;&gt;OponentTurn</title>
<path fill="none" stroke="black" d="M793.659,-216.12C846.39,-280.003 919.894,-369.051 965.941,-424.836"/>
<polygon fill="black" stroke="black" points="963.465,-427.334 972.53,-432.818 968.863,-422.878 963.465,-427.334"/>
<text text-anchor="middle" x="891" y="-380.8" font-family="Times,serif" font-size="14.00">Pokemon Alive</text>
</g>
<!-- OponentDefeated -->
<g id="node22" class="node"><title>OponentDefeated</title>
<ellipse fill="none" stroke="black" cx="1571" cy="-139" rx="72.5877" ry="72.5877"/>
<text text-anchor="middle" x="1571" y="-135.3" font-family="Times,serif" font-size="14.00">OponentDefeated</text>
</g>
<!-- IsOponentPokemonAlive&#45;&gt;OponentDefeated -->
<g id="edge24" class="edge"><title>IsOponentPokemonAlive&#45;&gt;OponentDefeated</title>
<path fill="none" stroke="black" d="M830.073,-139C997.838,-139 1332.65,-139 1487.7,-139"/>
<polygon fill="black" stroke="black" points="1488.09,-142.5 1498.09,-139 1488.09,-135.5 1488.09,-142.5"/>
<text text-anchor="middle" x="1129" y="-142.8" font-family="Times,serif" font-size="14.00">Pokemon Dead</text>
</g>
<!-- OponentSelectAtack -->
<g id="node24" class="node"><title>OponentSelectAtack</title>
<ellipse fill="none" stroke="black" cx="1283" cy="-711" rx="83.3857" ry="83.3857"/>
<text text-anchor="middle" x="1283" y="-707.3" font-family="Times,serif" font-size="14.00">OponentSelectAtack</text>
</g>
<!-- OponentTurn&#45;&gt;OponentSelectAtack -->
<g id="edge25" class="edge"><title>OponentTurn&#45;&gt;OponentSelectAtack</title>
<path fill="none" stroke="black" d="M1054.24,-514.337C1096.58,-550.897 1161.81,-607.221 1211.63,-650.238"/>
<polygon fill="black" stroke="black" points="1209.63,-653.136 1219.49,-657.022 1214.21,-647.838 1209.63,-653.136"/>
</g>
<!-- BattleOver -->
<g id="node27" class="node"><title>BattleOver</title>
<ellipse fill="none" stroke="black" cx="1732" cy="-233" rx="49.2915" ry="49.2915"/>
<text text-anchor="middle" x="1732" y="-229.3" font-family="Times,serif" font-size="14.00">BattleOver</text>
</g>
<!-- OponentDefeated&#45;&gt;BattleOver -->
<g id="edge30" class="edge"><title>OponentDefeated&#45;&gt;BattleOver</title>
<path fill="none" stroke="black" d="M1633.93,-175.612C1649.24,-184.662 1665.46,-194.253 1680.17,-202.951"/>
<polygon fill="black" stroke="black" points="1678.72,-206.161 1689.11,-208.237 1682.29,-200.135 1678.72,-206.161"/>
</g>
<!-- PlayerDefeated -->
<g id="node23" class="node"><title>PlayerDefeated</title>
<ellipse fill="none" stroke="black" cx="1571" cy="-295" rx="64.9885" ry="64.9885"/>
<text text-anchor="middle" x="1571" y="-291.3" font-family="Times,serif" font-size="14.00">PlayerDefeated</text>
</g>
<!-- PlayerDefeated&#45;&gt;BattleOver -->
<g id="edge31" class="edge"><title>PlayerDefeated&#45;&gt;BattleOver</title>
<path fill="none" stroke="black" d="M1631.66,-271.737C1646.12,-266.098 1661.52,-260.093 1675.77,-254.537"/>
<polygon fill="black" stroke="black" points="1677.38,-257.666 1685.42,-250.773 1674.83,-251.145 1677.38,-257.666"/>
</g>
<!-- OponentResultAtack -->
<g id="node25" class="node"><title>OponentResultAtack</title>
<ellipse fill="none" stroke="black" cx="1283" cy="-508" rx="84.485" ry="84.485"/>
<text text-anchor="middle" x="1283" y="-504.3" font-family="Times,serif" font-size="14.00">OponentResultAtack</text>
</g>
<!-- OponentSelectAtack&#45;&gt;OponentResultAtack -->
<g id="edge26" class="edge"><title>OponentSelectAtack&#45;&gt;OponentResultAtack</title>
<path fill="none" stroke="black" d="M1283,-627.645C1283,-619.305 1283,-610.965 1283,-602.624"/>
<polygon fill="black" stroke="black" points="1286.5,-602.451 1283,-592.451 1279.5,-602.451 1286.5,-602.451"/>
</g>
<!-- IsPlayerPokemonAlive -->
<g id="node26" class="node"><title>IsPlayerPokemonAlive</title>
<ellipse fill="none" stroke="black" cx="1283" cy="-295" rx="92.8835" ry="92.8835"/>
<text text-anchor="middle" x="1283" y="-291.3" font-family="Times,serif" font-size="14.00">IsPlayerPokemonAlive</text>
</g>
<!-- OponentResultAtack&#45;&gt;IsPlayerPokemonAlive -->
<g id="edge27" class="edge"><title>OponentResultAtack&#45;&gt;IsPlayerPokemonAlive</title>
<path fill="none" stroke="black" d="M1283,-423.464C1283,-414.913 1283,-406.362 1283,-397.81"/>
<polygon fill="black" stroke="black" points="1286.5,-397.771 1283,-387.771 1279.5,-397.772 1286.5,-397.771"/>
</g>
<!-- IsPlayerPokemonAlive&#45;&gt;PlayerTurn -->
<g id="edge28" class="edge"><title>IsPlayerPokemonAlive&#45;&gt;PlayerTurn</title>
<path fill="none" stroke="black" d="M1225.42,-368.008C1213.62,-383.454 1201.33,-399.709 1190,-415 1108.64,-524.796 1147.66,-665 1011,-665 199,-665 199,-665 199,-665 172.214,-665 142.566,-665 117.396,-665"/>
<polygon fill="black" stroke="black" points="117.266,-661.5 107.266,-665 117.266,-668.5 117.266,-661.5"/>
<text text-anchor="middle" x="547" y="-668.8" font-family="Times,serif" font-size="14.00">Pokemon Alive</text>
</g>
<!-- IsPlayerPokemonAlive&#45;&gt;PlayerDefeated -->
<g id="edge29" class="edge"><title>IsPlayerPokemonAlive&#45;&gt;PlayerDefeated</title>
<path fill="none" stroke="black" d="M1376.07,-295C1414.73,-295 1459.1,-295 1495.63,-295"/>
<polygon fill="black" stroke="black" points="1495.72,-298.5 1505.72,-295 1495.72,-291.5 1495.72,-298.5"/>
<text text-anchor="middle" x="1437" y="-298.8" font-family="Times,serif" font-size="14.00">Pokemon Dead</text>
</g>
</g>
</svg>
